<?xml version="1.0" standalone="no"?><!DOCTYPE svg PUBLIC "-//W3C//DTD SVG 1.1//EN" "http://www.w3.org/Graphics/SVG/1.1/DTD/svg11.dtd"><svg t="1583571449837" class="icon" viewBox="0 0 1024 1024" version="1.1" xmlns="http://www.w3.org/2000/svg" p-id="3343" xmlns:xlink="http://www.w3.org/1999/xlink" width="300" height="300"><defs><style type="text/css"></style></defs><path d="M512 16C238 16 16 238 16 512s222 496 496 496 496-222 496-496S786 16 512 16z m160 304c35.4 0 64 28.6 64 64s-28.6 64-64 64-64-28.6-64-64 28.6-64 64-64z m-320 0c35.4 0 64 28.6 64 64s-28.6 64-64 64-64-28.6-64-64 28.6-64 64-64z m176 544h-32c-146.8 0-268-110-285.8-252-2.4-19 12.6-36 31.8-36h540c19.2 0 34.2 16.8 31.8 36-17.8 142-139 252-285.8 252z" p-id="3344" fill="#d4237a"></path></svg>