<?xml version="1.0" standalone="no"?><!DOCTYPE svg PUBLIC "-//W3C//DTD SVG 1.1//EN" "http://www.w3.org/Graphics/SVG/1.1/DTD/svg11.dtd"><svg t="1583571463458" class="icon" viewBox="0 0 1024 1024" version="1.1" xmlns="http://www.w3.org/2000/svg" p-id="3651" xmlns:xlink="http://www.w3.org/1999/xlink" width="300" height="300"><defs><style type="text/css"></style></defs><path d="M512 16C238 16 16 238 16 512s222 496 496 496 496-222 496-496S786 16 512 16z m282.8 778.8c-75.6 75.6-176 117.2-282.8 117.2s-207.2-41.6-282.8-117.2C153.6 719.2 112 618.8 112 512s41.6-207.2 117.2-282.8C304.8 153.6 405.2 112 512 112s207.2 41.6 282.8 117.2c75.6 75.6 117.2 176 117.2 282.8s-41.6 207.2-117.2 282.8zM672 328c-51.4 0-111.8 33.8-119.8 84.2-3.4 22.4 23 36.4 39.6 21.6l19-17c29.6-26.4 92.4-26.4 122 0l19 17c17 14.8 43.2 0.6 39.6-21.6-7.6-50.4-68-84.2-119.4-84.2z m-320 120c35.4 0 64-28.6 64-64s-28.6-64-64-64-64 28.6-64 64 28.6 64 64 64z m388.8 128H283.2c-16.4 0-29 14-27 30 15 118.4 117.8 210 242.2 210h27.2c124.4 0 227.2-91.6 242.2-210 2-16-10.6-30-27-30z" p-id="3652"></path></svg>