<?xml version="1.0" standalone="no"?><!DOCTYPE svg PUBLIC "-//W3C//DTD SVG 1.1//EN" "http://www.w3.org/Graphics/SVG/1.1/DTD/svg11.dtd"><svg t="1583571490183" class="icon" viewBox="0 0 1024 1024" version="1.1" xmlns="http://www.w3.org/2000/svg" p-id="4936" xmlns:xlink="http://www.w3.org/1999/xlink" width="300" height="300"><defs><style type="text/css"></style></defs><path d="M823.665343 650.308797c-31.067016-50.732697-71.458464-209.918702-20.725767-240.985717 34.982845-21.418068 104.515846 23.430068 154.491338 69.987323-16.809938-235.598749-212.796079-421.654694-452.678442-421.654694-244.901547 0-444.003042 193.930871-453.414012 436.53917 50.018761-51.122116 130.974732-108.604749 169.70033-84.893434 50.732697 31.067016 10.341249 190.253021-20.725767 240.985718-23.300262 38.054931-66.763796 56.617257-108.453309 50.429815 71.718077 156.589876 229.389673 265.584045 412.892758 265.584045 183.200203 0 340.655455-108.648018 412.524972-264.826841-36.843404 0.389419-73.081045-17.610412-93.612101-51.165385z" fill="#FBD971" p-id="4937"></path><path d="M418.236457 447.096763a21.634412 21.634412 0 0 1-21.634412-21.634412c0-35.783318-29.119919-64.903237-64.903237-64.903237s-64.903237 29.119919-64.903236 64.903237a21.634412 21.634412 0 1 1-43.268825 0c0-59.646075 48.525987-108.172061 108.172061-108.172061s108.172061 48.525987 108.172062 108.172061a21.634412 21.634412 0 0 1-21.634413 21.634412zM786.021465 447.096763a21.634412 21.634412 0 0 1-21.634412-21.634412c0-35.783318-29.119919-64.903237-64.903237-64.903237s-64.903237 29.119919-64.903236 64.903237a21.634412 21.634412 0 1 1-43.268825 0c0-59.646075 48.525987-108.172061 108.172061-108.172061s108.172061 48.525987 108.172062 108.172061a21.634412 21.634412 0 0 1-21.634413 21.634412z" fill="#F29C1F" p-id="4938"></path><path d="M972.401927 686.092115c-50.732697 31.067016-117.669568 14.971013-148.736584-35.761683-31.067016-50.732697-71.458464-209.918702-20.725767-240.985718 50.732697-31.067016 174.157019 77.278121 205.224034 128.010817 31.067016 50.732697 14.971013 117.669568-35.761683 148.736584zM51.598073 686.092115c50.732697 31.067016 117.669568 14.971013 148.736584-35.761683 31.067016-50.732697 71.458464-209.918702 20.725767-240.985718-50.732697-31.067016-174.157019 77.278121-205.224034 128.010817-31.067016 50.732697-14.971013 117.669568 35.761683 148.736584z" fill="#48A0DC" p-id="4939"></path><path d="M266.795572 663.440886c0 131.429054 106.54948 237.978535 237.978534 237.978534s237.978535-106.54948 237.978535-237.978534h-475.957069z" fill="#C03A2B" p-id="4940"></path><path d="M266.795572 663.440886c0 45.84332 62.847968 84.936702 151.440885 100.686554v-100.686554h-151.440885zM461.505282 663.440886v106.289867c14.040734 1.168258 28.470887 1.882194 43.268824 1.882194s29.228091-0.692301 43.268825-1.882194v-106.289867h-86.537649zM742.752641 663.440886h-151.440886v100.686554c88.571284-15.749852 151.440886-54.843235 151.440886-100.686554z" fill="#FFFFFF" p-id="4941"></path><path d="M418.236457 663.440886v100.686554c13.846024 2.466323 28.297811 4.370151 43.268825 5.624947v-106.289867h-43.268825zM548.042931 663.440886v106.289867c14.971013-1.254796 29.422801-3.158624 43.268824-5.624947v-100.686555h-43.268824z" fill="#ECF0F1" p-id="4942"></path></svg>