<?xml version="1.0" standalone="no"?><!DOCTYPE svg PUBLIC "-//W3C//DTD SVG 1.1//EN" "http://www.w3.org/Graphics/SVG/1.1/DTD/svg11.dtd"><svg t="1583571493866" class="icon" viewBox="0 0 1024 1024" version="1.1" xmlns="http://www.w3.org/2000/svg" p-id="5085" xmlns:xlink="http://www.w3.org/1999/xlink" width="300" height="300"><defs><style type="text/css"></style></defs><path d="M512 512m-512 0a512 512 0 1 0 1024 0 512 512 0 1 0-1024 0Z" fill="#FBD971" p-id="5086"></path><path d="M780.166095 536.380952a24.30781 24.30781 0 0 1-15.603809-5.656381l-146.285715-121.904761a24.429714 24.429714 0 0 1 0-37.449143l146.285715-121.904762a24.380952 24.380952 0 0 1 31.232 37.449143L671.98781 390.095238l123.806476 103.180191A24.380952 24.380952 0 0 1 780.166095 536.380952zM268.214857 536.380952a24.380952 24.380952 0 0 1-15.652571-43.105523L376.368762 390.095238l-123.806476-103.18019a24.380952 24.380952 0 0 1 31.232-37.449143l146.285714 121.904762a24.380952 24.380952 0 0 1 0.024381 37.449143l-146.285714 121.904761a24.30781 24.30781 0 0 1-15.60381 5.656381z" fill="#F29C1F" p-id="5087"></path><path d="M780.190476 658.285714H243.809524c0 148.114286 120.07619 268.190476 268.190476 268.190476s268.190476-120.07619 268.190476-268.190476z" fill="#FFFFFF" p-id="5088"></path><path d="M731.428571 755.809524h-48.761904v-97.52381a24.380952 24.380952 0 1 0-48.761905 0v97.52381h-48.761905v-97.52381a24.380952 24.380952 0 1 0-48.761905 0v97.52381h-48.761904v-97.52381a24.380952 24.380952 0 1 0-48.761905 0v97.52381h-48.761905v-97.52381a24.380952 24.380952 0 1 0-48.761905 0v97.52381h-48.761904a24.380952 24.380952 0 1 0 0 48.761905h48.761904v73.142857a24.380952 24.380952 0 1 0 48.761905 0v-73.142857h48.761905v97.523809a24.380952 24.380952 0 1 0 48.761905 0v-97.523809h48.761904v97.523809a24.380952 24.380952 0 1 0 48.761905 0v-97.523809h48.761905v73.142857a24.380952 24.380952 0 1 0 48.761905 0v-73.142857h48.761904a24.380952 24.380952 0 1 0 0-48.761905z" fill="#ECF0F0" p-id="5089"></path><path d="M512 950.857143c-161.328762 0-292.571429-131.242667-292.571429-292.571429a24.380952 24.380952 0 0 1 24.380953-24.380952h536.380952a24.380952 24.380952 0 0 1 24.380953 24.380952c0 161.328762-131.242667 292.571429-292.571429 292.571429z m-242.590476-268.190476c12.263619 123.026286 116.370286 219.428571 242.590476 219.428571s230.326857-96.402286 242.590476-219.428571h-485.180952z" fill="#F0C419" p-id="5090"></path></svg>