<?xml version="1.0" standalone="no"?><!DOCTYPE svg PUBLIC "-//W3C//DTD SVG 1.1//EN" "http://www.w3.org/Graphics/SVG/1.1/DTD/svg11.dtd"><svg t="1583571468921" class="icon" viewBox="0 0 1024 1024" version="1.1" xmlns="http://www.w3.org/2000/svg" p-id="3785" xmlns:xlink="http://www.w3.org/1999/xlink" width="300" height="300"><defs><style type="text/css"></style></defs><path d="M512 16C238 16 16 238 16 512s222 496 496 496 496-222 496-496S786 16 512 16z m282.8 778.8c-75.6 75.6-176 117.2-282.8 117.2s-207.2-41.6-282.8-117.2S112 618.8 112 512s41.6-207.2 117.2-282.8S405.2 112 512 112s207.2 41.6 282.8 117.2S912 405.2 912 512s-41.6 207.2-117.2 282.8zM703.2 392l67.2-80.6c17.2-20.6-7.6-49.6-30.8-36l-160 96c-15.6 9.4-15.6 31.8 0 41.2l160 96c23 13.6 48-15.2 30.8-36L703.2 392z m-418.8 116.6l160-96c15.6-9.4 15.6-31.8 0-41.2l-160-96c-23.2-13.8-48 15.4-30.8 36l67.2 80.6-67.2 80.6c-17.4 20.8 7.6 49.6 30.8 36zM740.8 576H283.2c-16.4 0-29 14-27 30 15 118.4 117.8 210 242.2 210h27.2c124.4 0 227.2-91.6 242.2-210 2-16-10.6-30-27-30z" p-id="3786" fill="#cdcdcd"></path></svg>