<?xml version="1.0" standalone="no"?><!DOCTYPE svg PUBLIC "-//W3C//DTD SVG 1.1//EN" "http://www.w3.org/Graphics/SVG/1.1/DTD/svg11.dtd"><svg t="1583569849542" class="icon" viewBox="0 0 1024 1024" version="1.1" xmlns="http://www.w3.org/2000/svg" p-id="7862" xmlns:xlink="http://www.w3.org/1999/xlink" width="300" height="300"><defs><style type="text/css"></style></defs><path d="M511.146667 802.133333c-66.9696 0-127.402667-18.551467-179.6096-55.125333a17.066667 17.066667 0 0 1 19.592533-27.972267C397.482667 751.530667 451.328 768 511.146667 768c58.248533 0 110.762667-15.377067 156.0576-45.755733a17.066667 17.066667 0 0 1 19.012266 28.3648C635.204267 784.7936 576.3072 802.133333 511.146667 802.133333zM768 529.92a16.9984 16.9984 0 0 1-10.325333-3.4816l-123.374934-93.7984a90.231467 90.231467 0 0 1-21.691733-16.059733l-1.518933-1.518934-1.2288-1.245866C590.2848 394.2912 580.266667 370.1248 580.266667 342.186667c0-27.818667 9.949867-52.189867 29.5424-72.448 20.6848-20.002133 45.056-29.952 72.8576-29.952 27.904 0 52.0704 10.001067 71.799466 29.7472 5.051733 5.051733 9.489067 10.257067 13.294934 15.598933 3.652267-5.2736 7.8848-10.410667 12.714666-15.394133 20.6848-20.002133 45.056-29.952 72.8576-29.952 11.298133 0 20.753067 1.399467 29.764267 4.164266a100.437333 100.437333 0 0 1 42.052267 25.582934c20.292267 20.309333 30.600533 44.765867 30.600533 72.6528-0.017067 22.545067-6.656 42.666667-19.712 59.835733l-0.477867 0.6144c-3.1744 3.7888-6.638933 7.5776-10.427733 11.3664-7.594667 7.594667-15.684267 13.824-24.046933 18.4832l-122.692267 93.917867c-3.072 2.338133-6.741333 3.515733-10.3936 3.515733z m-85.333333-256c-18.8928 0-34.833067 6.519467-48.708267 19.950933-13.038933 13.4656-19.5584 29.405867-19.5584 48.315734 0 18.807467 6.4512 34.4064 19.729067 47.650133l2.645333 2.6624c4.352 4.334933 9.045333 7.765333 14.267733 10.359467a16.9984 16.9984 0 0 1 2.696534 1.6896l114.210133 86.8352 113.408-86.801067a15.428267 15.428267 0 0 1 2.286933-1.4848 75.8272 75.8272 0 0 0 17.3568-13.243733 135.850667 135.850667 0 0 0 8.106667-8.8064c8.3968-11.178667 12.4928-23.893333 12.509867-38.877867 0-18.773333-6.741333-34.628267-20.599467-48.503467a65.8432 65.8432 0 0 0-27.886933-17.066666 61.8496 61.8496 0 0 0-18.107734-2.679467c-20.599467 0-36.539733 6.519467-50.414933 19.950933-12.817067 13.2608-19.3536 27.323733-19.5584 42.581334a17.066667 17.066667 0 0 1-34.133333 0c-0.2048-15.138133-6.946133-29.1328-20.599467-42.769067-13.277867-13.312-28.859733-19.7632-47.650133-19.7632z m-426.666667 256a17.032533 17.032533 0 0 1-10.325333-3.4816l-123.392-93.7984a89.736533 89.736533 0 0 1-21.7088-16.0768l-1.501867-1.501867a90.112 90.112 0 0 1-11.741867-13.909333C74.9056 384.853333 68.266667 364.714667 68.266667 342.186667c0-27.8016 9.949867-52.1728 29.5424-72.448 20.0192-19.336533 43.6736-29.269333 70.724266-29.934934H170.666667c27.904 0 52.053333 10.001067 71.799466 29.7472 5.051733 5.051733 9.489067 10.257067 13.294934 15.616 3.652267-5.2736 7.8848-10.410667 12.714666-15.394133 20.6848-20.0192 45.056-29.952 72.8576-29.952 10.018133 0 19.9168 1.365333 29.422934 4.061867 16.008533 4.864 30.173867 13.482667 42.376533 25.685333C433.442133 289.826133 443.733333 314.282667 443.733333 342.186667c0 28.040533-10.359467 52.258133-30.805333 72.004266a109.1072 109.1072 0 0 1-23.842133 18.2784l-122.692267 93.917867a17.066667 17.066667 0 0 1-10.3936 3.5328z m-86.818133-256c-18.397867 0.494933-33.8432 7.031467-47.2576 19.968C108.919467 307.336533 102.4 323.2768 102.4 342.186667c0 15.104 4.164267 27.904 12.731733 39.150933 2.269867 3.345067 4.4032 5.905067 7.0144 8.4992l2.6112 2.628267c4.317867 4.317867 9.147733 7.8336 14.301867 10.410666a16.9984 16.9984 0 0 1 2.696533 1.6896l114.2272 86.8352 113.390934-86.801066a15.428267 15.428267 0 0 1 2.286933-1.4848 75.6224 75.6224 0 0 0 17.339733-13.243734c13.9264-13.482667 20.599467-28.996267 20.599467-47.684266 0-18.7904-6.741333-34.645333-20.599467-48.520534a65.792 65.792 0 0 0-27.869866-17.066666A72.704 72.704 0 0 0 341.333333 273.92c-18.8928 0-34.833067 6.519467-48.708266 19.950933-12.817067 13.277867-19.3536 27.3408-19.5584 42.581334a17.066667 17.066667 0 1 1-34.133334 0.017066c-0.2048-15.138133-6.946133-29.149867-20.599466-42.786133-13.294933-13.312-28.8768-19.7632-47.6672-19.7632h-1.4848z" p-id="7863" fill="#f4ea2a"></path><path d="M512 955.733333c-121.890133 0-227.584-43.8784-314.146133-130.440533C111.872 739.293867 68.266667 633.9072 68.266667 512c0-43.537067 5.6832-85.589333 16.861866-124.9792l32.836267 9.335467C107.639467 432.708267 102.4 471.620267 102.4 512c0 112.520533 40.226133 209.800533 119.586133 289.160533C301.909333 881.083733 399.496533 921.6 512 921.6c112.4864 0 209.7664-40.4992 289.1264-120.405333C881.1008 721.7664 921.6 624.4864 921.6 512c0-40.891733-5.239467-79.786667-15.547733-115.592533l32.802133-9.454934C950.050133 425.847467 955.733333 467.9168 955.733333 512c0 121.924267-43.895467 227.328-130.474666 313.326933C739.328 911.837867 633.924267 955.733333 512 955.733333zM182.3744 267.383467l-26.8288-21.077334c12.8-16.298667 26.965333-32.512 42.0864-48.2304C284.450133 111.854933 390.126933 68.266667 512 68.266667c121.9072 0 227.293867 43.605333 313.2928 129.5872a548.113067 548.113067 0 0 1 43.144533 48.452266l-26.8288 21.077334c-11.9808-15.2576-25.6-30.549333-40.448-45.4144C721.800533 142.626133 624.520533 102.4 512 102.4c-112.5376 0-210.1248 40.2432-290.065067 119.620267a612.471467 612.471467 0 0 0-39.560533 45.3632z" p-id="7864" fill="#f4ea2a"></path></svg>